<mxfile host="app.diagrams.net" modified="2024-03-26T09:39:55.510Z" agent="Mozilla/5.0 (X11; Linux x86_64) AppleWebKit/537.36 (KHTML, like Gecko) Chrome/125.0.0.0 Safari/537.36" etag="3qjgDHgPt8R8M6gVtUoD" version="24.1.0" type="github">
  <diagram name="Page-1" id="9roH--GxoAJzpAhgx8rE">
    <mxGraphModel dx="1674" dy="754" grid="1" gridSize="10" guides="0" tooltips="1" connect="1" arrows="1" fold="1" page="1" pageScale="1" pageWidth="850" pageHeight="1100" math="0" shadow="0">
      <root>
        <mxCell id="0" />
        <mxCell id="1" parent="0" />
        <mxCell id="OcazFChXHvMm_REGz8Uh-10" value="&lt;div&gt;Virtual Switching Unit (VSU)&lt;/div&gt;10.10.80.81" style="ellipse;whiteSpace=wrap;html=1;fillColor=none;dashed=1;rounded=1;" parent="1" vertex="1">
          <mxGeometry x="153" y="494" width="525" height="170" as="geometry" />
        </mxCell>
        <mxCell id="OcazFChXHvMm_REGz8Uh-1" value="ISP" style="ellipse;shape=cloud;whiteSpace=wrap;html=1;rounded=1;" parent="1" vertex="1">
          <mxGeometry x="359" y="160" width="120" height="80" as="geometry" />
        </mxCell>
        <mxCell id="OcazFChXHvMm_REGz8Uh-3" value="" style="points=[[0.5,0,0],[1,0.5,0],[0.5,1,0],[0,0.5,0],[0.145,0.145,0],[0.8555,0.145,0],[0.855,0.8555,0],[0.145,0.855,0]];verticalLabelPosition=bottom;html=1;verticalAlign=top;aspect=fixed;align=center;pointerEvents=1;shape=mxgraph.cisco19.rect;prIcon=router_with_firewall;fillColor=#FAFAFA;strokeColor=#005073;rounded=1;" parent="1" vertex="1">
          <mxGeometry x="380" y="294" width="90" height="90" as="geometry" />
        </mxCell>
        <mxCell id="OcazFChXHvMm_REGz8Uh-7" value="" style="points=[[0.015,0.015,0],[0.985,0.015,0],[0.985,0.985,0],[0.015,0.985,0],[0.25,0,0],[0.5,0,0],[0.75,0,0],[1,0.25,0],[1,0.5,0],[1,0.75,0],[0.75,1,0],[0.5,1,0],[0.25,1,0],[0,0.75,0],[0,0.5,0],[0,0.25,0]];verticalLabelPosition=bottom;html=1;verticalAlign=top;aspect=fixed;align=center;pointerEvents=1;shape=mxgraph.cisco19.rect;prIcon=l3_switch;fillColor=#FAFAFA;strokeColor=#005073;rounded=1;" parent="1" vertex="1">
          <mxGeometry x="270" y="529" width="50" height="50" as="geometry" />
        </mxCell>
        <mxCell id="OcazFChXHvMm_REGz8Uh-8" value="" style="points=[[0.015,0.015,0],[0.985,0.015,0],[0.985,0.985,0],[0.015,0.985,0],[0.25,0,0],[0.5,0,0],[0.75,0,0],[1,0.25,0],[1,0.5,0],[1,0.75,0],[0.75,1,0],[0.5,1,0],[0.25,1,0],[0,0.75,0],[0,0.5,0],[0,0.25,0]];verticalLabelPosition=bottom;html=1;verticalAlign=top;aspect=fixed;align=center;pointerEvents=1;shape=mxgraph.cisco19.rect;prIcon=l3_switch;fillColor=#FAFAFA;strokeColor=#005073;rounded=1;" parent="1" vertex="1">
          <mxGeometry x="545" y="529" width="50" height="50" as="geometry" />
        </mxCell>
        <mxCell id="OcazFChXHvMm_REGz8Uh-11" style="edgeStyle=orthogonalEdgeStyle;rounded=1;orthogonalLoop=1;jettySize=auto;html=1;entryX=0;entryY=0.5;entryDx=0;entryDy=0;entryPerimeter=0;" parent="1" source="OcazFChXHvMm_REGz8Uh-7" target="OcazFChXHvMm_REGz8Uh-8" edge="1">
          <mxGeometry relative="1" as="geometry" />
        </mxCell>
        <mxCell id="OcazFChXHvMm_REGz8Uh-44" style="edgeStyle=orthogonalEdgeStyle;rounded=1;orthogonalLoop=1;jettySize=auto;html=1;entryX=-0.039;entryY=0.578;entryDx=0;entryDy=0;entryPerimeter=0;endArrow=none;endFill=0;" parent="1" source="OcazFChXHvMm_REGz8Uh-12" target="OcazFChXHvMm_REGz8Uh-3" edge="1">
          <mxGeometry relative="1" as="geometry">
            <mxPoint x="260" y="434" as="targetPoint" />
            <Array as="points">
              <mxPoint x="120" y="346" />
            </Array>
          </mxGeometry>
        </mxCell>
        <mxCell id="OcazFChXHvMm_REGz8Uh-12" value="" style="strokeColor=#666666;html=1;labelPosition=right;align=left;spacingLeft=15;shadow=0;dashed=0;outlineConnect=0;shape=mxgraph.rack.dell.poweredge_r6525;rounded=1;" parent="1" vertex="1">
          <mxGeometry x="80" y="844" width="162" height="15" as="geometry" />
        </mxCell>
        <mxCell id="OcazFChXHvMm_REGz8Uh-13" value="" style="strokeColor=#666666;html=1;labelPosition=right;align=left;spacingLeft=15;shadow=0;dashed=0;outlineConnect=0;shape=mxgraph.rack.dell.poweredge_r6525;rounded=1;" parent="1" vertex="1">
          <mxGeometry x="348" y="844" width="162" height="15" as="geometry" />
        </mxCell>
        <mxCell id="OcazFChXHvMm_REGz8Uh-14" value="" style="strokeColor=#666666;html=1;labelPosition=right;align=left;spacingLeft=15;shadow=0;dashed=0;outlineConnect=0;shape=mxgraph.rack.dell.poweredge_r6525;rounded=1;" parent="1" vertex="1">
          <mxGeometry x="630" y="844" width="162" height="15" as="geometry" />
        </mxCell>
        <mxCell id="OcazFChXHvMm_REGz8Uh-27" value="" style="endArrow=none;html=1;rounded=1;entryX=0.5;entryY=1;entryDx=0;entryDy=0;entryPerimeter=0;" parent="1" source="OcazFChXHvMm_REGz8Uh-12" target="OcazFChXHvMm_REGz8Uh-8" edge="1">
          <mxGeometry width="50" height="50" relative="1" as="geometry">
            <mxPoint x="480" y="684" as="sourcePoint" />
            <mxPoint x="530" y="634" as="targetPoint" />
          </mxGeometry>
        </mxCell>
        <mxCell id="OcazFChXHvMm_REGz8Uh-28" value="" style="endArrow=none;html=1;rounded=1;entryX=0.5;entryY=1;entryDx=0;entryDy=0;entryPerimeter=0;" parent="1" source="OcazFChXHvMm_REGz8Uh-12" target="OcazFChXHvMm_REGz8Uh-7" edge="1">
          <mxGeometry width="50" height="50" relative="1" as="geometry">
            <mxPoint x="480" y="684" as="sourcePoint" />
            <mxPoint x="530" y="634" as="targetPoint" />
          </mxGeometry>
        </mxCell>
        <mxCell id="OcazFChXHvMm_REGz8Uh-30" value="" style="endArrow=none;html=1;rounded=1;entryX=0.5;entryY=1;entryDx=0;entryDy=0;entryPerimeter=0;" parent="1" source="OcazFChXHvMm_REGz8Uh-13" target="OcazFChXHvMm_REGz8Uh-7" edge="1">
          <mxGeometry width="50" height="50" relative="1" as="geometry">
            <mxPoint x="480" y="684" as="sourcePoint" />
            <mxPoint x="530" y="634" as="targetPoint" />
          </mxGeometry>
        </mxCell>
        <mxCell id="OcazFChXHvMm_REGz8Uh-31" value="" style="endArrow=none;html=1;rounded=1;entryX=0.5;entryY=1;entryDx=0;entryDy=0;entryPerimeter=0;" parent="1" source="OcazFChXHvMm_REGz8Uh-14" target="OcazFChXHvMm_REGz8Uh-7" edge="1">
          <mxGeometry width="50" height="50" relative="1" as="geometry">
            <mxPoint x="480" y="684" as="sourcePoint" />
            <mxPoint x="530" y="634" as="targetPoint" />
          </mxGeometry>
        </mxCell>
        <mxCell id="OcazFChXHvMm_REGz8Uh-32" value="" style="endArrow=none;html=1;rounded=1;entryX=0.5;entryY=1;entryDx=0;entryDy=0;entryPerimeter=0;" parent="1" source="OcazFChXHvMm_REGz8Uh-13" target="OcazFChXHvMm_REGz8Uh-8" edge="1">
          <mxGeometry width="50" height="50" relative="1" as="geometry">
            <mxPoint x="480" y="684" as="sourcePoint" />
            <mxPoint x="530" y="634" as="targetPoint" />
          </mxGeometry>
        </mxCell>
        <mxCell id="OcazFChXHvMm_REGz8Uh-33" value="" style="endArrow=none;html=1;rounded=1;entryX=0.5;entryY=1;entryDx=0;entryDy=0;entryPerimeter=0;" parent="1" source="OcazFChXHvMm_REGz8Uh-14" target="OcazFChXHvMm_REGz8Uh-8" edge="1">
          <mxGeometry width="50" height="50" relative="1" as="geometry">
            <mxPoint x="480" y="684" as="sourcePoint" />
            <mxPoint x="530" y="634" as="targetPoint" />
          </mxGeometry>
        </mxCell>
        <mxCell id="OcazFChXHvMm_REGz8Uh-34" value="" style="endArrow=none;html=1;rounded=1;entryX=0.5;entryY=1;entryDx=0;entryDy=0;entryPerimeter=0;exitX=0.5;exitY=0;exitDx=0;exitDy=0;exitPerimeter=0;" parent="1" source="OcazFChXHvMm_REGz8Uh-8" target="OcazFChXHvMm_REGz8Uh-3" edge="1">
          <mxGeometry width="50" height="50" relative="1" as="geometry">
            <mxPoint x="490" y="564" as="sourcePoint" />
            <mxPoint x="540" y="514" as="targetPoint" />
          </mxGeometry>
        </mxCell>
        <mxCell id="OcazFChXHvMm_REGz8Uh-35" value="" style="endArrow=none;html=1;rounded=1;entryX=0.5;entryY=1;entryDx=0;entryDy=0;entryPerimeter=0;exitX=0.5;exitY=0;exitDx=0;exitDy=0;exitPerimeter=0;" parent="1" source="OcazFChXHvMm_REGz8Uh-7" target="OcazFChXHvMm_REGz8Uh-3" edge="1">
          <mxGeometry width="50" height="50" relative="1" as="geometry">
            <mxPoint x="490" y="564" as="sourcePoint" />
            <mxPoint x="420" y="384" as="targetPoint" />
          </mxGeometry>
        </mxCell>
        <mxCell id="OcazFChXHvMm_REGz8Uh-37" value="iDRAC: 10.10.80.77&lt;div&gt;Proxmox: 10.10.80.67&lt;/div&gt;" style="text;html=1;align=left;verticalAlign=middle;resizable=0;points=[];autosize=1;strokeColor=none;fillColor=none;" parent="1" vertex="1">
          <mxGeometry x="80" y="874" width="140" height="40" as="geometry" />
        </mxCell>
        <mxCell id="OcazFChXHvMm_REGz8Uh-38" value="iDRAC: 10.10.80.78&lt;div&gt;Proxmox: 10.10.80.68&lt;/div&gt;" style="text;html=1;align=left;verticalAlign=middle;resizable=0;points=[];autosize=1;strokeColor=none;fillColor=none;" parent="1" vertex="1">
          <mxGeometry x="350" y="874" width="140" height="40" as="geometry" />
        </mxCell>
        <mxCell id="OcazFChXHvMm_REGz8Uh-39" value="iDRAC: 10.10.80.79&lt;div&gt;Proxmox: 10.10.80.69&lt;/div&gt;" style="text;html=1;align=left;verticalAlign=middle;resizable=0;points=[];autosize=1;strokeColor=none;fillColor=none;" parent="1" vertex="1">
          <mxGeometry x="630" y="874" width="140" height="40" as="geometry" />
        </mxCell>
        <mxCell id="OcazFChXHvMm_REGz8Uh-41" value="Gateway Firewall&lt;div&gt;10.10.80.65&lt;/div&gt;" style="text;html=1;align=center;verticalAlign=middle;resizable=0;points=[];autosize=1;strokeColor=none;fillColor=none;" parent="1" vertex="1">
          <mxGeometry x="270" y="360" width="120" height="40" as="geometry" />
        </mxCell>
        <mxCell id="OcazFChXHvMm_REGz8Uh-42" value="10.10.80.64/27" style="text;html=1;align=center;verticalAlign=middle;resizable=0;points=[];autosize=1;strokeColor=none;fillColor=none;" parent="1" vertex="1">
          <mxGeometry x="460" y="352" width="100" height="30" as="geometry" />
        </mxCell>
        <mxCell id="OcazFChXHvMm_REGz8Uh-45" style="edgeStyle=orthogonalEdgeStyle;rounded=1;orthogonalLoop=1;jettySize=auto;html=1;entryX=1;entryY=0.5;entryDx=0;entryDy=0;entryPerimeter=0;endArrow=none;endFill=0;" parent="1" source="OcazFChXHvMm_REGz8Uh-14" target="OcazFChXHvMm_REGz8Uh-3" edge="1">
          <mxGeometry relative="1" as="geometry">
            <Array as="points">
              <mxPoint x="760" y="339" />
            </Array>
          </mxGeometry>
        </mxCell>
        <mxCell id="OcazFChXHvMm_REGz8Uh-47" style="edgeStyle=orthogonalEdgeStyle;rounded=1;orthogonalLoop=1;jettySize=auto;html=1;entryX=0.55;entryY=0.95;entryDx=0;entryDy=0;entryPerimeter=0;endArrow=none;endFill=0;" parent="1" source="OcazFChXHvMm_REGz8Uh-3" target="OcazFChXHvMm_REGz8Uh-1" edge="1">
          <mxGeometry relative="1" as="geometry" />
        </mxCell>
        <mxCell id="ub5dyYIS-9k93EMCACCz-4" value="" style="endArrow=none;html=1;rounded=1;entryX=0.5;entryY=1;entryDx=0;entryDy=0;entryPerimeter=0;" edge="1" parent="1" source="OcazFChXHvMm_REGz8Uh-13" target="OcazFChXHvMm_REGz8Uh-3">
          <mxGeometry width="50" height="50" relative="1" as="geometry">
            <mxPoint x="590" y="610" as="sourcePoint" />
            <mxPoint x="640" y="560" as="targetPoint" />
          </mxGeometry>
        </mxCell>
      </root>
    </mxGraphModel>
  </diagram>
</mxfile>
